<mxfile host="app.diagrams.net" modified="2020-11-23T01:35:40.073Z" agent="5.0 (Macintosh; Intel Mac OS X 10_15_7) AppleWebKit/537.36 (KHTML, like Gecko) Chrome/87.0.4280.67 Safari/537.36" etag="fH7czREoodh2snPDc8Wv" version="13.9.9" type="github">
  <diagram id="4Q4Vy5Si02KmG_iShK8B" name="Page-1">
    <mxGraphModel dx="1838" dy="505" grid="1" gridSize="10" guides="1" tooltips="1" connect="1" arrows="1" fold="1" page="1" pageScale="1" pageWidth="850" pageHeight="1100" math="0" shadow="0">
      <root>
        <mxCell id="0" />
        <mxCell id="1" parent="0" />
        <mxCell id="laFwIkWGdqhHdvhrfXQt-1" value="&lt;div style=&quot;text-align: left&quot;&gt;&lt;span&gt;Hệ thống thông tin trường đại học để theo dõi bảng điểm của sinh viên:&lt;/span&gt;&lt;/div&gt;&lt;div style=&quot;text-align: left&quot;&gt;&lt;span&gt;I. RS1 liên quan đến data lưu trữ trong bộ nhớ vĩnh viễn&lt;/span&gt;&lt;/div&gt;&lt;div style=&quot;text-align: left&quot;&gt;&lt;span&gt;II. RS1 chia thành 5 phần:&lt;/span&gt;&lt;/div&gt;&lt;div style=&quot;text-align: left&quot;&gt;&lt;span&gt;1. RS1a:&lt;/span&gt;&lt;/div&gt;&lt;div style=&quot;text-align: left&quot;&gt;&lt;span&gt;- Tên SV&lt;/span&gt;&lt;/div&gt;&lt;div style=&quot;text-align: left&quot;&gt;&lt;span&gt;- MSSV&lt;/span&gt;&lt;/div&gt;&lt;div style=&quot;text-align: left&quot;&gt;- CMND&lt;/div&gt;&lt;div style=&quot;text-align: left&quot;&gt;- Address hiện tại&lt;/div&gt;&lt;div style=&quot;text-align: left&quot;&gt;- Phone&lt;/div&gt;&lt;div style=&quot;text-align: left&quot;&gt;- Address thường trú&lt;/div&gt;&lt;div style=&quot;text-align: left&quot;&gt;- Birthday&lt;/div&gt;&lt;div style=&quot;text-align: left&quot;&gt;- Gemale&lt;/div&gt;&lt;div style=&quot;text-align: left&quot;&gt;- Class&lt;/div&gt;&lt;div style=&quot;text-align: left&quot;&gt;- Khoa chính&lt;/div&gt;&lt;div style=&quot;text-align: left&quot;&gt;- Khoa phụ (nếu có)&lt;/div&gt;&lt;div style=&quot;text-align: left&quot;&gt;- Bằng cấp (BA, BS, ..., Ph.D)&lt;/div&gt;&lt;div style=&quot;text-align: left&quot;&gt;* MSSV + CMND đều có giá trị duy nhất&lt;/div&gt;&lt;div style=&quot;text-align: left&quot;&gt;2. RS1b:&lt;/div&gt;&lt;div style=&quot;text-align: left&quot;&gt;- Tên Khoa&lt;/div&gt;&lt;div style=&quot;text-align: left&quot;&gt;- Mã Khoa&lt;/div&gt;&lt;div style=&quot;text-align: left&quot;&gt;- MSVP&lt;/div&gt;&lt;div style=&quot;text-align: left&quot;&gt;- Phone VP&lt;/div&gt;&lt;div style=&quot;text-align: left&quot;&gt;- Trường ĐH&lt;/div&gt;&lt;div style=&quot;text-align: left&quot;&gt;* Tên + Mã đề có giá trị riêng biệt&lt;/div&gt;&lt;div style=&quot;text-align: left&quot;&gt;3. RS1c:&lt;/div&gt;&lt;div style=&quot;text-align: left&quot;&gt;- Tên Khoá học&lt;/div&gt;&lt;div style=&quot;text-align: left&quot;&gt;- Mô tả&lt;/div&gt;&lt;div style=&quot;text-align: left&quot;&gt;- Mã Khoá học&lt;/div&gt;&lt;div style=&quot;text-align: left&quot;&gt;- Số giờ học trong kỳ&lt;/div&gt;&lt;div style=&quot;text-align: left&quot;&gt;- Cấp độ&lt;/div&gt;&lt;div style=&quot;text-align: left&quot;&gt;- Khoa giảng dạy&lt;/div&gt;&lt;div style=&quot;text-align: left&quot;&gt;* Mã Khoa học là giá trị duy nhất&lt;/div&gt;&lt;div style=&quot;text-align: left&quot;&gt;4. RS1d:&lt;/div&gt;&lt;div style=&quot;text-align: left&quot;&gt;- Người hướng dẫn&lt;/div&gt;&lt;div style=&quot;text-align: left&quot;&gt;- Học kỳ&lt;/div&gt;&lt;div style=&quot;text-align: left&quot;&gt;- Năm&lt;/div&gt;&lt;div style=&quot;text-align: left&quot;&gt;- Khoá học&lt;/div&gt;&lt;div style=&quot;text-align: left&quot;&gt;- Số phần&lt;/div&gt;&lt;div style=&quot;text-align: left&quot;&gt;5. RS1e:&lt;/div&gt;&lt;div style=&quot;text-align: left&quot;&gt;- Một báo cáo điểm có một sinh viên, phần và điểm&lt;/div&gt;&lt;div style=&quot;text-align: left&quot;&gt;&lt;br&gt;&lt;/div&gt;&lt;div style=&quot;text-align: left&quot;&gt;&lt;br&gt;&lt;/div&gt;&lt;div style=&quot;text-align: left&quot;&gt;&lt;br&gt;&lt;/div&gt;" style="shape=ext;rounded=1;html=1;whiteSpace=wrap;" vertex="1" parent="1">
          <mxGeometry x="-310" y="100" width="440" height="660" as="geometry" />
        </mxCell>
      </root>
    </mxGraphModel>
  </diagram>
</mxfile>
